<?xml version="1.0" encoding="UTF-8" standalone="no"?>
<!-- Uploaded to: SVG Repo, www.svgrepo.com, Generator: SVG Repo Mixer Tools -->

<svg
   height="800px"
   width="800px"
   version="1.1"
   id="Layer_1"
   viewBox="0 0 512 512"
   xml:space="preserve"
   sodipodi:docname="flowers-flower-svgrepo-com.svg"
   inkscape:version="1.4 (86a8ad7, 2024-10-11)"
   xmlns:inkscape="http://www.inkscape.org/namespaces/inkscape"
   xmlns:sodipodi="http://sodipodi.sourceforge.net/DTD/sodipodi-0.dtd"
   xmlns="http://www.w3.org/2000/svg"
   xmlns:svg="http://www.w3.org/2000/svg"><defs
   id="defs16"><rect
     x="217.15629"
     y="634.54759"
     width="321.50411"
     height="70.505288"
     id="rect16" /></defs><sodipodi:namedview
   id="namedview16"
   pagecolor="#ffffff"
   bordercolor="#000000"
   borderopacity="0.25"
   inkscape:showpageshadow="2"
   inkscape:pageopacity="0.0"
   inkscape:pagecheckerboard="0"
   inkscape:deskcolor="#d1d1d1"
   inkscape:zoom="1.06375"
   inkscape:cx="400"
   inkscape:cy="400"
   inkscape:window-width="1920"
   inkscape:window-height="1111"
   inkscape:window-x="-9"
   inkscape:window-y="-9"
   inkscape:window-maximized="1"
   inkscape:current-layer="Layer_1" />
<circle
   style="fill:#E6F3FF;"
   cx="256"
   cy="256"
   r="256"
   id="circle1" />
<path
   style="fill:#CFDBE6;"
   d="M509.44,292.195L366.785,149.54l-6.303,5.613l-37.726-37.726l-63.612,76.01l99.618,99.618  l-40.907,43.61L192.293,211.103L89.491,322.603l188.45,188.45C397.029,500.943,492.861,409.321,509.44,292.195z"
   id="path1" />
<circle
   style="fill:#FC6F58;"
   cx="164.357"
   cy="237.692"
   r="38.59"
   id="circle2" />
<path
   style="fill:#F1543F;"
   d="M164.35,199.111c-0.098,0-0.193,0.007-0.291,0.007v77.164c0.097,0,0.193,0.007,0.291,0.007  c21.313,0,38.59-17.277,38.59-38.59C202.94,216.388,185.661,199.111,164.35,199.111z"
   id="path2" />
<circle
   style="fill:#FC6F58;"
   cx="164.357"
   cy="343.816"
   r="38.59"
   id="circle3" />
<g
   id="g4">
	<path
   style="fill:#F1543F;"
   d="M164.35,305.233c-0.098,0-0.193,0.007-0.291,0.007v77.164c0.097,0,0.193,0.007,0.291,0.007   c21.313,0,38.59-17.277,38.59-38.59C202.94,322.51,185.661,305.233,164.35,305.233z"
   id="path3" />
	<circle
   style="fill:#F1543F;"
   cx="217.402"
   cy="290.754"
   r="38.59"
   id="circle4" />
</g>
<circle
   style="fill:#FC6F58;"
   cx="111.295"
   cy="290.754"
   r="38.59"
   id="circle5" />
<circle
   style="fill:#F9B54C;"
   cx="164.357"
   cy="290.754"
   r="38.59"
   id="circle6" />
<path
   style="fill:#4f3018;fill-opacity:1"
   d="m 164.35,252.171 c -0.098,0 -0.193,0.007 -0.291,0.007 v 77.164 c 0.097,0 0.193,0.007 0.291,0.007 21.313,0 38.59,-17.277 38.59,-38.59 0,-21.309 -17.279,-38.588 -38.59,-38.588 z"
   id="path6"
   sodipodi:nodetypes="sccsss" />
<circle
   style="fill:#FC6F58;"
   cx="303.7"
   cy="134.034"
   r="25.283"
   id="circle7" />
<path
   style="fill:#4f3018;fill-opacity:1"
   d="m 328.507,129.177 c -2.682,-13.703 -15.965,-22.638 -29.668,-19.956 -0.019,0.003 -0.036,0.01 -0.057,0.014 l 9.656,49.628 c 0.038,-0.007 0.076,-0.009 0.114,-0.016 13.703,-2.684 22.638,-15.966 19.955,-29.67 z"
   id="path7"
   sodipodi:nodetypes="cccccc" />
<circle
   style="fill:#FC6F58;"
   cx="317.043"
   cy="202.266"
   r="25.283"
   id="circle8" />
<g
   id="g9">
	<path
   style="fill:#F1543F;"
   d="M341.863,197.411c-2.682-13.703-15.965-22.638-29.668-19.956c-0.045,0.009-0.086,0.024-0.131,0.033   l9.654,49.619c0.064-0.012,0.126-0.016,0.19-0.028C335.61,224.397,344.545,211.115,341.863,197.411z"
   id="path8" />
	<circle
   style="fill:#F1543F;"
   cx="344.488"
   cy="161.478"
   r="25.283"
   id="circle9" />
</g>
<circle
   style="fill:#FC6F58;"
   cx="276.256"
   cy="174.821"
   r="25.283"
   id="circle10" />
<circle
   style="fill:#F9B54C;"
   cx="310.372"
   cy="168.15"
   r="25.283"
   id="circle11" />
<path
   style="fill:#F4A200;"
   d="M335.186,163.294c-2.682-13.703-15.965-22.638-29.668-19.956c-0.033,0.007-0.062,0.017-0.093,0.024  l9.656,49.623c0.05-0.01,0.1-0.012,0.152-0.022C328.933,190.281,337.868,176.997,335.186,163.294z"
   id="path11" />
<circle
   style="fill:#FC6F58;"
   cx="348.367"
   cy="303.528"
   r="19.084"
   id="circle12" />
<path
   style="fill:#F1543F;"
   d="M367.083,299.86c-2.024-10.34-12.047-17.08-22.385-15.057c-0.031,0.007-0.06,0.017-0.09,0.022  l7.366,37.428c0.017-0.003,0.034-0.003,0.053-0.007C362.367,320.222,369.107,310.2,367.083,299.86z"
   id="path12" />
<circle
   style="fill:#FC6F58;"
   cx="358.434"
   cy="355.004"
   r="19.084"
   id="circle13" />
<g
   id="g14">
	<path
   style="fill:#F1543F;"
   d="M377.16,351.344c-2.024-10.34-12.047-17.08-22.385-15.057c-0.012,0.002-0.024,0.007-0.038,0.009   l7.368,37.433C372.443,371.705,379.183,361.682,377.16,351.344z"
   id="path13" />
	<circle
   style="fill:#F1543F;"
   cx="379.139"
   cy="324.232"
   r="19.084"
   id="circle14" />
</g>
<circle
   style="fill:#FC6F58;"
   cx="327.663"
   cy="334.3"
   r="19.084"
   id="circle15" />
<circle
   style="fill:#F9B54C;"
   cx="353.401"
   cy="329.266"
   r="19.084"
   id="circle16" />
<path
   style="fill:#F4A200;"
   d="M372.122,325.603c-2.024-10.34-12.047-17.08-22.385-15.057c-0.022,0.003-0.041,0.012-0.064,0.016  l7.366,37.429c0.009-0.002,0.017-0.002,0.026-0.003C367.404,345.964,374.146,335.941,372.122,325.603z"
   id="path16" />
<text
   xml:space="preserve"
   transform="scale(0.64)"
   id="text16"
   style="font-size:26.6667px;text-align:center;writing-mode:lr-tb;direction:ltr;white-space:pre;shape-inside:url(#rect16);fill:#4f3018;fill-opacity:1"
   x="52.018295"
   y="0"><tspan
     x="326.41725"
     y="658.87571"
     id="tspan1">Marcela </tspan></text></svg>
